<svg class="img-fluid" id="outputsvg" xmlns="http://www.w3.org/2000/svg"
      style="transform: matrix(1.3, 0, 0, 1.3, 0, 0); transform-origin: 50% 50%; cursor: move; max-height: none; transition: transform 200ms ease-in-out 0s;"
      width="155" height="110" viewBox="0 0 1550 1100">
      <g id="l4zPt9vkZv7w1qwL9YpyiL9" fill="rgb(239,99,50)" style="transform: none;">
            <g style="transform: none;">
                  <path id="pojvwoovB"
                        d="M319 1077 c-19 -12 -41 -36 -49 -52 -21 -43 -17 -131 8 -187 27 -61 102 -141 158 -169 l45 -21 -40 -43 c-44 -48 -67 -85 -52 -85 5 0 12 4 15 9 9 14 165 86 236 109 113 36 181 45 335 45 191 -1 319 -30 474 -107 59 -30 70 -33 62 -18 -18 33 -111 111 -175 147 -107 60 -199 79 -371 79 -133 0 -161 -3 -246 -27 -53 -15 -101 -27 -107 -27 -5 0 -25 23 -42 51 -35 54 -60 138 -60 206 0 33 -7 49 -34 77 -29 31 -40 36 -78 36 -30 0 -56 -7 -79 -23z m180 -374 c27 -18 30 -24 17 -29 -26 -10 -66 24 -91 79 -31 66 -20 83 14 21 14 -27 41 -59 60 -71z"></path>
                  <path id="paNFD4vyj"
                        d="M126 708 c-13 -19 -14 -25 -2 -43 17 -25 49 -30 88 -14 l29 12 -32 33 c-38 39 -62 43 -83 12z"></path>
                  <path id="p13EmH1Ltr"
                        d="M75 548 c-46 -25 -65 -51 -65 -89 0 -43 18 -62 57 -57 22 2 34 14 56 55 16 30 42 61 62 73 19 12 35 24 35 26 0 9 -126 3 -145 -8z"></path>
                  <path id="pFyTAdSY5"
                        d="M377 454 c-4 -4 -7 -56 -7 -115 0 -98 -2 -107 -20 -112 -27 -7 -29 -67 -2 -73 10 -3 23 -24 32 -52 18 -56 58 -86 125 -95 58 -8 65 -4 65 39 0 33 -1 34 -40 34 -27 0 -47 7 -60 20 -34 34 -26 49 28 52 47 3 47 3 47 38 0 35 -1 35 -47 38 l-47 3 -3 112 -3 112 -30 3 c-17 2 -34 0 -38 -4z"></path>
                  <path id="p9O4zlrVs"
                        d="M626 434 c-96 -65 -88 -219 14 -271 52 -27 84 -29 133 -8 121 50 123 232 3 289 -51 24 -105 20 -150 -10z m134 -74 c33 -33 30 -85 -6 -117 -31 -28 -54 -29 -88 -2 -20 16 -26 29 -26 59 0 70 74 106 120 60z"></path>
                  <path id="pPIQMOGkE"
                        d="M966 437 c-141 -81 -69 -312 91 -294 147 16 188 210 63 294 -43 30 -103 30 -154 0z m114 -67 c47 -25 43 -116 -6 -139 -37 -16 -52 -14 -79 14 -64 63 7 167 85 125z"></path>
                  <path id="p1EligFkKT"
                        d="M1300 439 c-58 -34 -75 -65 -75 -136 0 -66 16 -98 69 -137 29 -22 104 -28 139 -12 15 7 17 1 17 -59 l0 -66 38 3 37 3 3 200 c1 110 0 206 -4 215 -4 12 -9 11 -24 -8 l-19 -23 -40 21 c-51 25 -96 25 -141 -1z m105 -65 c23 -9 48 -62 41 -90 -8 -32 -45 -64 -73 -64 -13 0 -35 11 -48 25 -61 60 1 159 80 129z"></path>
            </g>
      </g>
</svg>